<svg width="48" height="48" viewBox="0 0 48 48" fill="none" xmlns="http://www.w3.org/2000/svg">
<path d="M23.9393 21.4829C23.4993 21.4922 23.062 21.4135 22.6528 21.2515C22.2437 21.0896 21.871 20.8475 21.5566 20.5397C21.2422 20.2318 20.9924 19.8643 20.8219 19.4587C20.6514 19.053 20.5635 18.6174 20.5635 18.1774C20.5635 17.7373 20.6514 17.3017 20.8219 16.8961C20.9924 16.4904 21.2422 16.1229 21.5566 15.8151C21.871 15.5072 22.2437 15.2652 22.6528 15.1032C23.062 14.9413 23.4993 14.8626 23.9393 14.8718C24.8039 14.89 25.627 15.2462 26.2321 15.8642C26.8372 16.4821 27.1761 17.3125 27.1761 18.1774C27.1761 19.0422 26.8372 19.8727 26.2321 20.4906C25.627 21.1085 24.8039 21.4648 23.9393 21.4829Z" fill="white"/>
<path fill-rule="evenodd" clip-rule="evenodd" d="M35.0234 18.1782V29.6853L38.913 34.0971V37.0402H8.96545V34.0971L12.8551 29.6853V18.1782C12.8551 11.7611 17.4331 6.23363 23.9392 4.1189C30.4453 6.23363 35.0234 11.7611 35.0234 18.1782ZM12.4001 34.3173H35.4784L32.3005 30.715V18.1768C32.3005 13.3931 29.0627 9.09508 24.1595 7.09557L23.9407 7.0066L23.719 7.09557C18.8157 9.09363 15.578 13.3931 15.578 18.1782V30.715L12.4001 34.3173Z" fill="white"/>
<path d="M24.2645 42.47C25.1958 41.847 26.0074 41.0615 26.6607 40.1511H29.8372C28.5742 42.6389 26.4908 44.6142 23.9392 45.7428C21.3878 44.6141 19.3043 42.6389 18.0413 40.1511H21.2178C21.8668 41.0554 22.6762 41.8429 23.6155 42.47L23.9392 42.6859L24.2645 42.47Z" fill="#FFC400"/>
</svg>
