<svg width="48" height="48" viewBox="0 0 48 48" fill="none" xmlns="http://www.w3.org/2000/svg">
<path fill-rule="evenodd" clip-rule="evenodd" d="M23.0725 43.0271L6.01603 32.7932C5.95867 32.7585 5.91122 32.7096 5.8783 32.6513C5.84537 32.5929 5.82806 32.527 5.82806 32.46C5.82806 32.3929 5.84537 32.327 5.8783 32.2687C5.91122 32.2103 5.95867 32.1614 6.01603 32.1267L8.05347 30.9045L23.7725 40.3363L39.4915 30.9045L41.529 32.1267C41.5863 32.1614 41.6338 32.2103 41.6667 32.2687C41.6996 32.327 41.7169 32.3929 41.7169 32.46C41.7169 32.527 41.6996 32.5929 41.6667 32.6513C41.6338 32.7096 41.5863 32.7585 41.529 32.7932L24.4726 43.0285C24.2611 43.1554 24.0191 43.2224 23.7725 43.2224C23.5259 43.2224 23.2839 43.1539 23.0725 43.0271Z" fill="white"/>
<path fill-rule="evenodd" clip-rule="evenodd" d="M6.01603 22.988L8.05347 21.7644L23.7725 31.1961L39.4915 21.7644L41.529 22.988C41.5863 23.0227 41.6338 23.0716 41.6667 23.13C41.6996 23.1884 41.7169 23.2543 41.7169 23.3213C41.7169 23.3883 41.6996 23.4542 41.6667 23.5126C41.6338 23.571 41.5863 23.6199 41.529 23.6545L23.7725 34.3084L6.01603 23.6545C5.95867 23.6199 5.91122 23.571 5.8783 23.5126C5.84537 23.4542 5.82806 23.3883 5.82806 23.3213C5.82806 23.2543 5.84537 23.1884 5.8783 23.13C5.91122 23.0716 5.95867 23.0227 6.01603 22.988Z" fill="#FFC400"/>
<path fill-rule="evenodd" clip-rule="evenodd" d="M6.09915 14.3104C6.03453 14.2715 5.98106 14.2166 5.94395 14.1509C5.90683 14.0852 5.88733 14.0111 5.88733 13.9356C5.88733 13.8602 5.90683 13.786 5.94395 13.7204C5.98106 13.6547 6.03453 13.5997 6.09915 13.5608L23.0199 3.38528C23.2468 3.249 23.5064 3.177 23.771 3.177C24.0357 3.177 24.2953 3.249 24.5221 3.38528L41.4429 13.5302C41.5075 13.5691 41.561 13.624 41.5981 13.6897C41.6352 13.7554 41.6547 13.8296 41.6547 13.905C41.6547 13.9804 41.6352 14.0546 41.5981 14.1203C41.561 14.1859 41.5075 14.2409 41.4429 14.2798L24.5236 24.4597C24.2969 24.5962 24.0373 24.6685 23.7727 24.6687C23.5081 24.669 23.2484 24.5972 23.0214 24.4612L6.09915 14.3104ZM10.772 13.9327L23.7725 21.731L36.773 13.9094L23.7725 6.11548L10.772 13.9327Z" fill="white"/>
</svg>
