<svg width="48" height="48" viewBox="0 0 48 48" fill="none" xmlns="http://www.w3.org/2000/svg">
<path d="M36.7257 29.675L38.8083 30.8767L39.065 30.2671C42.1861 22.8757 39.3859 14.1441 32.257 10.0284C29.8999 8.66576 27.2363 7.92201 24.5142 7.86642C21.7922 7.81082 19.1004 8.44519 16.6897 9.71041L15.3377 7.34628C18.1621 5.84528 21.322 5.0877 24.52 5.14486C27.7179 5.20201 30.8488 6.07201 33.6177 7.67297C42.0883 12.5631 45.3305 23.0303 41.3854 31.7591L41.1666 32.2404L43.3222 33.4844L36.978 36.8578L36.7257 29.675ZM11.6478 18.3385L9.56519 17.1368L9.30851 17.7464C6.18745 25.1378 8.98765 33.8694 16.1165 37.9837C18.4734 39.346 21.1368 40.0896 23.8585 40.1452C26.5803 40.2008 29.2718 39.5666 31.6824 38.3016L33.0344 40.6672C30.2103 42.1682 27.0507 42.9259 23.853 42.869C20.6553 42.8121 17.5247 41.9425 14.7558 40.342C6.28371 35.4518 3.04306 24.9846 6.98814 16.2573L7.2069 15.7761L5.05133 14.532L11.3955 11.1586L11.6478 18.3414V18.3385Z" fill="white"/>
<path d="M26.9366 24.833L32.4379 19.3318L34.363 21.2569L26.9366 28.6818L21.4383 23.1835L15.9371 28.6818L14.012 26.7567L21.4369 19.3332L26.9366 24.833Z" fill="#FFC400"/>
</svg>
