<svg width="24" height="24" viewBox="0 0 24 24" fill="none" xmlns="http://www.w3.org/2000/svg">
<path d="M18.4193 12.7051L13.0354 15.8457C12.3963 16.2177 11.6015 16.2182 10.9635 15.8451M18.4193 12.7051C18.4195 12.705 18.419 12.7053 18.4193 12.7051ZM18.4193 12.7051C18.5441 12.6333 18.6986 12.6336 18.8195 12.7028C18.9309 12.7675 19.0033 12.8804 19.0179 13.0033V13.0494V18.36L19.0094 18.3713L19.0087 18.3722C17.3353 20.6 14.7825 21.8774 11.9986 21.8774C9.21456 21.8774 6.65911 20.5998 4.98579 18.3722L4.98511 18.3713L4.97656 18.36V13.0467C4.97656 12.9054 5.0532 12.7736 5.1752 12.7042C5.30169 12.6323 5.45614 12.634 5.57609 12.704L10.9635 15.8451M10.9635 15.8451C10.9637 15.8452 10.9634 15.845 10.9635 15.8451Z" stroke="black"/>
<path fill-rule="evenodd" clip-rule="evenodd" d="M19.4085 17.7667L19.5179 17.6217V12.1436H19.5207C19.5207 12.1202 19.5198 12.097 19.5179 12.0738C19.4949 11.7806 19.3279 11.5134 19.0692 11.3638C18.9007 11.267 18.7069 11.2293 18.5179 11.2511C18.3969 11.2651 18.2779 11.3035 18.169 11.3665L12.7839 14.5078C12.2996 14.7896 11.6976 14.7896 11.216 14.5078L5.82829 11.3665C5.55192 11.2051 5.20715 11.2051 4.92805 11.3638C4.64895 11.5225 4.47656 11.8207 4.47656 12.1409V17.6217L4.58601 17.7667C6.35366 20.1199 9.05711 21.4716 11.9986 21.4716C14.9401 21.4716 17.6409 20.1199 19.4085 17.7667ZM5.47656 16.786C7.05622 18.8145 9.42196 19.9726 11.9986 19.9726C14.575 19.9726 16.9382 18.8147 18.5179 16.786V12.3206L13.2869 15.3721C12.4928 15.8342 11.506 15.8358 10.7117 15.3713L5.47656 12.319V16.786Z" fill="black"/>
<path d="M21.4798 11.5917L12.5633 17.4068C12.2148 17.6185 11.7795 17.6185 11.431 17.4068L2.51465 11.5918L11.9985 5.43384L21.4798 11.5917Z" fill="white" stroke="black"/>
<path d="M9.65924 10.0689L3.69492 13.9723L2.01709 12.8729L8.04653 8.93115L9.65924 10.0689Z" fill="#FFC400"/>
<path d="M15.1783 2.22168C14.9752 2.22168 14.8105 2.38643 14.8105 2.5895V9.40174L16.4503 8.11438H21.8066C22.0097 8.11438 22.1744 7.94963 22.1744 7.74657V2.5895C22.1744 2.38643 22.0097 2.22168 21.8066 2.22168H15.1783ZM18.8603 6.63929H18.1246V3.69294H18.8603V6.63929ZM20.3315 6.63929H19.5959V4.42857H20.3315V6.63929ZM17.3852 6.63929H16.6495V5.16803H17.3852V6.63929Z" fill="#FFC400"/>
</svg>
