<svg width="24" height="24" viewBox="0 0 24 24" fill="none" xmlns="http://www.w3.org/2000/svg">
<path d="M16.9177 15.3643H21.8544V19.9585C21.8544 21.1679 20.8749 22.1475 19.6654 22.1475H16.9175C16.9175 22.1475 16.9177 20.9107 16.9177 19.3866V15.3643Z" fill="#FFC400"/>
<path d="M3.14844 19.4058V3.65503H16.9491V21.6421H5.38473C4.15318 21.6421 3.14844 20.6374 3.14844 19.4058Z" stroke="black"/>
<path d="M2.64844 19.3865V19.4057C2.64844 20.637 3.46659 21.6796 4.58574 22.0216C3.46386 21.6714 2.64844 20.6234 2.64844 19.3838V19.3865Z" fill="#2F54EB"/>
<path d="M5.20703 14.8689H14.3298V13.5801H5.20703V14.8689Z" fill="black"/>
<path d="M5.20703 17.8462H14.3298V16.5574H5.20703V17.8462Z" fill="black"/>
<path d="M10.6797 10.2529H14.3299V8.96411H10.6797V10.2529Z" fill="black"/>
<path d="M5.12256 7.39062V11.8289H9.73047V7.39062H5.12256Z" fill="black"/>
<path d="M9.73051 7.39062L5.13428 11.8289H9.73037L9.73051 7.39062Z" fill="#FFC400"/>
</svg>
