<svg width="24" height="24" viewBox="0 0 24 24" fill="none" xmlns="http://www.w3.org/2000/svg">
<path d="M19.4458 22.4732H7.38428V3.61743H22.1821V19.7369C22.1821 21.2446 20.9535 22.4732 19.4458 22.4732ZM8.47879 21.3787H19.4458C20.3516 21.3787 21.0876 20.6426 21.0876 19.7369V4.71195H8.47879V21.3787Z" fill="black"/>
<path d="M14.9858 19.8655H19.8537V18.5767H14.9858V19.8655Z" fill="black"/>
<path d="M17.4623 11.4981L18.8989 12.3354L18.2176 8.27197L14.3567 9.714L15.7959 10.5376L14.5728 12.6528L12.3209 11.353L11.552 12.6883L10.0142 15.3535L11.6806 16.3139L13.0268 13.9799L15.2788 15.2823L16.242 13.6159H16.2392L17.4623 11.4981Z" fill="#FFC400"/>
<path fill-rule="evenodd" clip-rule="evenodd" d="M7.3815 15.6951H2.97607V20.2893C2.97607 21.4987 3.95567 22.4783 5.16511 22.4783H7.3815V18.1062L7.38159 17.1622L7.3815 15.6951ZM7.38159 17.1622H2.97617V18.1062H7.3815L7.38159 17.1622Z" fill="#FFC400"/>
</svg>
