<svg width="24" height="24" viewBox="0 0 24 24" fill="none" xmlns="http://www.w3.org/2000/svg">
<path d="M21.0567 13.8566V21.3027H9.68799C5.85234 17.856 5.17513 14.0467 6.19682 11.1299C7.21913 8.21145 9.96137 6.10245 13.207 6.01636H13.4108H13.4119H13.413H13.4141H13.4152H13.4163H13.4173H13.4184H13.4195H13.4206H13.4217H13.423H13.4241H13.4252H13.4263H13.4273H13.4284H13.4295H13.4306H13.4316H13.4327H13.4338H13.4349H13.4359H13.437H13.4381H13.4391H13.4402H13.4413H13.4426H13.4437H13.4447H13.4458H13.4469H13.4482H13.4493H13.4503H13.4514H13.4525H13.4535H13.4546H13.4556H13.4567H13.4578H13.4588H13.4599H13.461H13.4623H13.4633H13.4644H13.4655H13.4665H13.4676H13.4686H13.4697H13.4708H13.4721H13.4731H13.4742H13.4753H13.4763H13.4774H13.4784H13.4795H13.4805H13.4816H13.4827H13.484H13.485H13.4861H13.4872H13.4885H13.4898H13.4909H13.4919H13.493H13.494H13.4951H13.4962H13.4975H13.4988H13.4999H13.5009H13.502H13.5031H13.5044H13.5055H13.5065H13.5076H13.5086H13.5097H13.5108H13.5121H13.5132H13.5142H13.5153H13.5164H13.5174H13.5185H13.5196H13.5206H13.5217H13.5228H13.5239H13.5249H13.526H13.5271H13.5282H13.5292H13.5303H13.5314H13.5325H13.5335H13.5346H13.5357H13.5368H13.5379H13.5389H13.54H13.5411H13.5422H13.5433C17.732 6.08506 21.0567 9.63556 21.0567 13.8566Z" stroke="black"/>
<path d="M9.52771 3.22339C14.3436 7.45643 11.3774 12.8251 7.17997 12.7813C4.53945 12.7539 2.45166 10.5129 2.45166 7.86961V3.22339H9.52771Z" fill="#FFC400"/>
<path d="M15.3969 14.2806C16.4699 14.2806 17.3397 13.4108 17.3397 12.3378C17.3397 11.2648 16.4699 10.395 15.3969 10.395C14.324 10.395 13.4541 11.2648 13.4541 12.3378C13.4541 13.4108 14.324 14.2806 15.3969 14.2806Z" fill="black"/>
<path d="M3.34668 5.46701H8.21454V4.17822H3.34668V5.46701Z" fill="white"/>
<path d="M18.2816 19.3682H12.5093V16.6729L13.8822 15.5222H16.9113L18.2816 16.6727V19.3682Z" stroke="black"/>
</svg>
