<svg width="24" height="24" viewBox="0 0 24 24" fill="none" xmlns="http://www.w3.org/2000/svg">
<path d="M21.2125 9.71925V13.1899C20.1946 13.4178 19.4339 14.3267 19.4339 15.4134C19.4339 16.5001 20.1946 17.4091 21.2125 17.637V21.1076C21.2125 21.2255 21.119 21.3191 21.0011 21.3191H2.99903C2.88115 21.3191 2.7876 21.2255 2.7876 21.1076V17.637C3.80554 17.4091 4.56619 16.5001 4.56619 15.4134C4.56619 14.3267 3.80554 13.4178 2.7876 13.1899V9.71925C2.7876 9.60137 2.88115 9.50781 2.99903 9.50781H21.0011C21.119 9.50781 21.2125 9.60137 21.2125 9.71925Z" stroke="black"/>
<path d="M9.6374 16.6039C12.6462 16.6039 15.0853 14.1648 15.0853 11.1559C15.0853 8.14714 12.6462 5.70801 9.6374 5.70801C6.62858 5.70801 4.18945 8.14714 4.18945 11.1559C4.18945 14.1648 6.62858 16.6039 9.6374 16.6039Z" fill="#FFC400"/>
<path d="M11.5632 11.1539L9.63807 9.22876L7.71289 11.1539L9.63807 13.0791L11.5632 11.1539Z" fill="white"/>
<path d="M11.5633 11.1539L9.63818 9.22876V11.1539V13.0791L11.5633 11.1539Z" fill="black"/>
<path d="M17.5972 7.57673C19.0888 7.57673 20.2979 6.36758 20.2979 4.87601C20.2979 3.38445 19.0888 2.17529 17.5972 2.17529C16.1056 2.17529 14.8965 3.38445 14.8965 4.87601C14.8965 6.36758 16.1056 7.57673 17.5972 7.57673Z" fill="#FFC400"/>
<path d="M18.5518 4.87551L17.5979 3.92163L16.644 4.87551L17.5979 5.82939L18.5518 4.87551Z" fill="white"/>
<path d="M17.7995 21.8246V9.00781H16.5161V21.8246H17.7995Z" fill="black"/>
</svg>
