<svg width="24" height="24" viewBox="0 0 24 24" fill="none" xmlns="http://www.w3.org/2000/svg">
<path d="M16.9979 7.56582C17.0143 7.52751 17.0307 7.49194 17.0471 7.46184C17.8078 6.0034 16.9486 4.17556 15.3287 3.90193C13.988 3.67482 12.8989 4.19197 12.0479 5.2345C12.0014 5.29196 11.9576 5.34943 11.9029 5.42057C11.8455 5.34943 11.8071 5.29744 11.7688 5.24818C11.0793 4.37257 10.1845 3.89098 9.06264 3.8472C7.1445 3.77332 5.88034 5.77355 6.7669 7.481C6.78058 7.50562 6.79152 7.53298 6.80794 7.56582H2.57764V11.6292H21.4225V7.56582H16.9979ZM8.4716 7.56582C7.94624 7.36607 7.60146 6.85165 7.63156 6.25787C7.66987 5.50539 8.27733 4.96634 9.04623 4.99371C9.65095 5.0156 10.1708 5.23997 10.6032 5.65863C11.1422 6.18126 11.3584 6.82702 11.3256 7.56582H8.4716ZM12.4857 7.56582C12.3927 6.19494 13.4079 5.0457 14.7623 4.99371C15.523 4.96361 16.1305 5.49992 16.1743 6.23872C16.2098 6.83797 15.8705 7.36607 15.3452 7.56582H12.4885H12.4857Z" fill="#FFC400"/>
<path fill-rule="evenodd" clip-rule="evenodd" d="M19.1038 11.6125H4.89404V20.2938H19.1038V11.6125ZM20.1038 9.61255V21.2938H3.89404V9.61255H20.1038Z" fill="black"/>
<path d="M17.6708 17.4685H12.8057V18.7518H17.6708V17.4685Z" fill="black"/>
</svg>
