<svg width="24" height="24" viewBox="0 0 24 24" fill="none" xmlns="http://www.w3.org/2000/svg">
<path d="M24 10H22V16H24V10Z" fill="#FFC400"/>
<path d="M0 10H2V16H0V10Z" fill="#FFC400"/>
<path d="M11.3499 2H12.6499V5H11.3499V2Z" fill="black"/>
<path d="M10.8 2.48853V2.26001C10.8 1.5973 11.3373 1.06006 12 1.06006C12.6627 1.06006 13.2 1.59729 13.2 2.26001V2.48853C13.2 3.15124 12.6627 3.68848 12 3.68848C11.3373 3.68848 10.8 3.15124 10.8 2.48853Z" fill="white" stroke="black" stroke-width="1.3"/>
<path d="M10 13C10 13.5523 9.55228 14 9 14C8.44772 14 8 13.5523 8 13C8 12.4477 8.44772 12 9 12C9.55228 12 10 12.4477 10 13ZM16 13C16 13.5523 15.5523 14 15 14C14.4477 14 14 13.5523 14 13C14 12.4477 14.4477 12 15 12C15.5523 12 16 12.4477 16 13Z" fill="black" stroke="black"/>
<path d="M17.9999 5.6499H5.9999C4.70203 5.6499 3.6499 6.70203 3.6499 7.9999V17.9999C3.6499 19.2978 4.70203 20.3499 5.9999 20.3499H17.9999C19.2978 20.3499 20.3499 19.2978 20.3499 17.9999V7.9999C20.3499 6.70203 19.2978 5.6499 17.9999 5.6499Z" stroke="black" stroke-width="1.3"/>
</svg>
