<svg width="24" height="24" viewBox="0 0 24 24" fill="none" xmlns="http://www.w3.org/2000/svg">
<path d="M14.2 10.8H15.8V9.19995H14.2V10.8Z" fill="#0A0A0A"/>
<path d="M16.2 14.8H17.7999V13.2H16.2V14.8Z" fill="#0A0A0A"/>
<path fill-rule="evenodd" clip-rule="evenodd" d="M17 4.19995C20.2032 4.19995 22.7999 6.7967 22.7999 9.99995V14C22.7999 17.2032 20.2032 19.8 17 19.8H6.99995C3.7967 19.8 1.19995 17.2032 1.19995 14V9.99995C1.19995 6.7967 3.7967 4.19995 6.99995 4.19995H17ZM17.2094 5.80503L17.0049 5.80001L6.99995 5.79995C4.75058 5.79995 2.91426 7.56812 2.80503 9.79049L2.79995 9.99504V14C2.79995 16.2493 4.56812 18.0857 6.79049 18.1949L6.99504 18.2H17C19.2493 18.2 21.0857 16.4318 21.1949 14.2094L21.2 14.0049V9.99995C21.2 7.75058 19.4318 5.91426 17.2094 5.80503Z" fill="#0A0A0A"/>
<path d="M9.79885 12.8L9.79985 14.8H8.19985L8.19885 12.8H6.19995V11.2H8.19995V9.19995H9.79995V11.2H11.8V12.8H9.79885Z" fill="#FFC400"/>
</svg>
