<svg width="24" height="24" viewBox="0 0 24 24" fill="none" xmlns="http://www.w3.org/2000/svg">
<path d="M12.0888 2.75269H10.9888V5.47256H12.0888V2.75269Z" fill="black"/>
<path d="M8.85838 3.27173L7.90576 3.82173L9.2657 6.17721L10.2183 5.62721L8.85838 3.27173Z" fill="black"/>
<path d="M15.047 3.82172L14.0943 3.27173L12.7344 5.62721L13.687 6.1772L15.047 3.82172Z" fill="black"/>
<path d="M8.83309 16.4068C8.83309 16.4068 8.83856 16.3904 8.8413 16.3849C8.84677 16.3658 8.85224 16.3439 8.85772 16.3247C8.86319 16.3056 8.86866 16.2864 8.8714 16.2673C8.89329 16.1715 8.9015 16.0757 8.9015 15.98C8.9015 15.4026 8.53483 14.8663 7.95748 14.6775C7.39927 14.4942 6.8055 14.6912 6.46073 15.1262C6.44978 15.1399 6.43884 15.1563 6.42789 15.1728C6.41695 15.1892 6.40326 15.2056 6.39232 15.222C6.32391 15.3233 6.26919 15.4354 6.23088 15.5558L5.22119 18.6588L7.77415 19.5809L8.83856 16.4068H8.83309Z" fill="#E6E6E6"/>
<path d="M14.0373 17.6436C13.9634 17.1483 13.6159 16.7133 13.107 16.5463C13.0194 16.5162 12.9291 16.4971 12.8415 16.4861C12.3682 16.4314 11.903 16.6284 11.6102 16.9924C11.5254 17.0991 11.4542 17.2195 11.4022 17.3535L10.4199 20.5386L12.951 21.4525L13.8485 18.6916L13.9853 18.2757C13.999 18.2292 14.0127 18.1826 14.0236 18.1361C14.0455 18.0404 14.0537 17.9446 14.0537 17.8488C14.0537 17.7804 14.0482 17.712 14.0373 17.6436Z" fill="#E6E6E6"/>
<path d="M11.4021 17.3562L11.4076 17.3398C11.4213 17.2932 11.435 17.2467 11.4459 17.2002C11.4678 17.1044 11.476 17.0087 11.476 16.9129C11.476 16.3355 11.1094 15.7992 10.532 15.6104C9.97376 15.4271 9.37998 15.6241 9.03521 16.0592C8.96954 16.1413 8.91208 16.2316 8.8683 16.3301C8.86009 16.3465 8.85188 16.3656 8.84367 16.3848C8.84367 16.3848 8.84093 16.393 8.8382 16.3985L7.84766 19.6109L10.3487 20.5139L11.4021 17.3671V17.3589V17.3562Z" fill="#E6E6E6"/>
<path d="M11.4051 17.3508L11.4023 17.3563V17.3536L11.4051 17.3508Z" fill="#312215"/>
<path d="M8.83555 16.3958L8.84376 16.3657L8.83008 16.4067C8.83008 16.4067 8.83281 16.4013 8.83555 16.3958Z" fill="#312215"/>
<path d="M12.1737 7.09507H7.59866L6.36186 9.81221H3.98129H2.26016H2.25469L2.2629 14.0097L2.25195 14.0261V18.2072H3.97582L5.21262 18.6532L6.22231 15.5502C6.26335 15.4298 6.31808 15.3176 6.38375 15.2164C6.3947 15.2 6.40838 15.1836 6.41932 15.1672C6.43027 15.1507 6.44121 15.1371 6.45216 15.1206C6.71211 14.795 7.10613 14.6035 7.52478 14.6035C7.66707 14.6035 7.80936 14.6254 7.95165 14.6719C8.529 14.8607 8.89567 15.397 8.89567 15.9744C8.89567 16.0701 8.88472 16.1659 8.86557 16.2617C8.86009 16.2808 8.85462 16.3 8.85188 16.3164L8.86283 16.3219C8.90935 16.2234 8.96407 16.1331 9.02974 16.051C9.28969 15.7254 9.68372 15.5338 10.1024 15.5338C10.2447 15.5338 10.3869 15.5557 10.5292 15.6022C11.1066 15.791 11.4733 16.3273 11.4733 16.9047C11.4733 17.0005 11.4623 17.0962 11.4432 17.192C11.4322 17.2385 11.4213 17.285 11.4048 17.3316L11.3994 17.348C11.4514 17.2139 11.5225 17.0935 11.6073 16.9868C11.8673 16.6612 12.2613 16.4696 12.6772 16.4696C12.7292 16.4696 12.7839 16.4724 12.8359 16.4778C12.9262 16.4888 13.0138 16.5079 13.1013 16.538C13.6103 16.7049 13.9551 17.14 14.0317 17.6353C14.0426 17.7037 14.0481 17.7721 14.0481 17.8405C14.0481 17.9363 14.0372 18.032 14.018 18.1278C14.0071 18.1743 13.9961 18.2209 13.9797 18.2674L13.8429 18.6833L12.9454 21.4442L14.3135 21.9395L16.3384 19.8681L17.9637 18.2017L14.4941 14.0343L14.4832 14.0234L10.9698 9.80674L12.1683 7.0896L12.1737 7.09507Z" fill="#FFC400"/>
<path d="M15.9765 15.034L15.9755 15.0328L14.8886 13.7113L14.2189 12.8971L14.2147 12.918L11.5605 9.73035L12.5001 7.59521H16.4241L17.5485 10.0225L17.6828 10.3124H18.0022H20.4046H21.2646V14.0098V17.71H20.0079H18.2063L15.9765 15.034Z" fill="white" stroke="black"/>
<path d="M4.36428 12.9344C4.92494 12.9344 5.37945 12.4799 5.37945 11.9193C5.37945 11.3586 4.92494 10.9041 4.36428 10.9041C3.80363 10.9041 3.34912 11.3586 3.34912 11.9193C3.34912 12.4799 3.80363 12.9344 4.36428 12.9344Z" fill="white"/>
</svg>
