<svg width="486" height="188" viewBox="0 0 486 188" fill="none" xmlns="http://www.w3.org/2000/svg">
<g clip-path="url(#clip0_319_21)">
<mask id="mask0_319_21" style="mask-type:luminance" maskUnits="userSpaceOnUse" x="0" y="0" width="486" height="188">
<path d="M0 0H486V188H0V0Z" fill="white"/>
</mask>
<g mask="url(#mask0_319_21)">
<path fill-rule="evenodd" clip-rule="evenodd" d="M465.449 7.84796C465.078 7.85109 464.704 7.85841 464.327 7.86885C431.351 8.76916 415.577 43.5982 401.065 75.6387C388.567 103.235 377.006 128.762 356.197 128.762C334.015 128.762 324.971 111.549 315.862 94.211C306.505 76.4011 297.079 58.4607 273.273 58.914C249.824 59.361 237.021 82.6323 225.461 103.642C212.404 127.375 200.934 148.224 177.5 130.035C163.443 120.154 149.24 130.269 133.468 141.501C120.603 150.663 106.694 160.569 90.968 160.97H89C89.66 160.986 90.315 160.986 90.968 160.97H465.449V7.84796Z" fill="url(#paint0_linear_319_21)"/>
<path d="M82 176.36L486.145 176.361" stroke="white" stroke-opacity="0.61" stroke-width="0.7" stroke-miterlimit="10"/>
<path d="M274 176.511V58.4889M194 176.511V141M101 176.511V154.578M357 176.511V138.911M466 176.511V8.35553" stroke="white" stroke-opacity="0.61" stroke-width="0.7" stroke-miterlimit="10" stroke-dasharray="2 2"/>
<path d="M102.207 156.243C132.418 157.235 152.56 110.29 178.339 130.304C222.518 164.6 223.337 59.8696 273.273 58.9171C320.262 58.0167 311.23 128.765 356.198 128.765C401.166 128.765 402.949 9.53468 464.328 7.86566" stroke="#FFC400" stroke-miterlimit="10"/>
<mask id="mask1_319_21" style="mask-type:luminance" maskUnits="userSpaceOnUse" x="355" y="36" width="7" height="7">
<path d="M359.954 40.4461C360.309 41.2607 360.815 41.9386 361.454 42.4431L356.588 38.5932C355.948 38.0867 355.443 37.4078 355.087 36.5952C355.256 36.731 355.485 36.9096 355.655 37.0454L356.256 37.5227L356.881 38.0167L357.518 38.5212L358.155 39.0246C358.345 39.176 358.593 39.3703 358.781 39.5207C358.871 39.5938 358.993 39.6899 359.086 39.7609L359.383 39.9959C359.555 40.1317 359.82 40.2717 359.954 40.4471V40.4461Z" fill="white"/>
<mask id="mask2_319_21" style="mask-type:luminance" maskUnits="userSpaceOnUse" x="355" y="36" width="7" height="7">
<path d="M359.954 40.4461C360.309 41.2607 360.815 41.9386 361.454 42.4431L356.588 38.5932C355.948 38.0867 355.443 37.4078 355.087 36.5952C355.256 36.731 355.485 36.9096 355.655 37.0454L356.256 37.5227L356.881 38.0167L357.518 38.5212L358.155 39.0246C358.345 39.176 358.593 39.3703 358.781 39.5207C358.871 39.5938 358.993 39.6899 359.086 39.7609L359.383 39.9959C359.555 40.1317 359.82 40.2717 359.954 40.4471V40.4461Z" fill="white"/>
</mask>
<g mask="url(#mask2_319_21)">
<path d="M359.954 40.4461L360.577 40.1119L359.317 40.749L359.954 40.4461ZM361.454 42.4431L361.032 43.0269L361.877 41.8603L361.454 42.4431ZM355.087 36.5952L355.511 36.0135L354.451 36.9013L355.087 36.5952ZM355.655 37.0454L355.229 37.6261L355.232 37.6282L355.655 37.0454ZM359.954 40.4472L359.408 40.9036L360.578 40.114L359.954 40.4472ZM359.317 40.749C359.716 41.6639 360.292 42.442 361.032 43.0269L361.877 41.8603C361.338 41.4352 360.902 40.8576 360.591 40.1422L359.317 40.749ZM361.877 41.8603L357.01 38.0105L356.165 39.1761L361.032 43.0269L361.877 41.8603ZM357.011 38.0115C356.472 37.5833 356.036 37.0047 355.723 36.2913L354.451 36.9013C354.85 37.812 355.424 38.588 356.165 39.1761L357.011 38.0115ZM354.663 37.178L355.229 37.6261L356.081 36.4657L355.511 36.0135L354.663 37.178ZM355.232 37.6282L355.533 37.8663L355.833 38.1045L356.68 36.9399L356.379 36.7018L356.079 36.4636L355.232 37.6282ZM355.833 38.1045C356.008 38.2444 356.279 38.4564 356.458 38.5995L357.304 37.4339C357.11 37.2804 356.864 37.0872 356.68 36.9399L355.833 38.1045ZM356.458 38.5995L357.095 39.103L357.941 37.9384L357.304 37.4339L356.458 38.5995ZM357.095 39.103L357.413 39.3557L357.732 39.6074L358.578 38.4418L358.259 38.1912C358.148 38.1013 358.036 38.0136 357.941 37.9384L357.095 39.103ZM357.732 39.6074L358.356 40.1014L359.206 38.94L358.578 38.4418L357.732 39.6074ZM358.356 40.1014L358.669 40.349L359.502 39.174C359.402 39.0968 359.304 39.0188 359.206 38.94L358.356 40.1014ZM358.669 40.349C358.76 40.419 358.862 40.5015 358.962 40.5808L359.805 39.4121C359.726 39.3494 359.596 39.246 359.502 39.174L358.669 40.349ZM358.962 40.5808C359.025 40.631 359.091 40.6748 359.143 40.7114L359.291 40.8117C359.389 40.8816 359.411 40.9088 359.408 40.9036L360.501 39.9907C360.378 39.8392 360.235 39.7079 360.075 39.6012C359.923 39.4936 359.876 39.4675 359.805 39.4121L358.962 40.5808ZM360.578 40.114L360.577 40.1119L359.331 40.7793L360.578 40.114Z" fill="white"/>
</g>
</mask>
<g mask="url(#mask1_319_21)">
<path d="M355.073 36.5681L359.94 40.4179C360.02 40.6048 360.108 40.7855 360.204 40.9568L355.337 37.107C355.24 36.9322 355.152 36.7523 355.073 36.5681Z" fill="#63B800"/>
<mask id="mask3_319_21" style="mask-type:luminance" maskUnits="userSpaceOnUse" x="355" y="36" width="6" height="5">
<path d="M355.073 36.5681L359.94 40.4179C360.02 40.6048 360.108 40.7855 360.204 40.9568L355.337 37.107C355.24 36.9322 355.152 36.7523 355.073 36.5681Z" fill="white"/>
</mask>
<g mask="url(#mask3_319_21)">
<path d="M355.073 36.568L355.496 35.9852L354.435 36.8688L355.073 36.568ZM359.94 40.4179L360.578 40.1181L360.505 39.9479L360.362 39.8351L359.94 40.4179ZM360.204 40.9568L359.781 41.5396L360.809 40.5902L360.204 40.9568ZM355.337 37.107L354.731 37.4725L354.802 37.601L354.914 37.6898L355.337 37.107ZM354.65 37.1508L359.517 41.0007L360.362 39.8351L355.496 35.9852L354.65 37.1508ZM359.301 40.7187C359.391 40.9275 359.49 41.1291 359.598 41.3234L360.809 40.5902C360.724 40.437 360.647 40.2794 360.578 40.1181L359.301 40.7187ZM360.626 40.374L355.76 36.5242L354.914 37.6898L359.781 41.5396L360.626 40.374ZM355.943 36.7404C355.858 36.5872 355.78 36.4296 355.711 36.2683L354.435 36.8688C354.525 37.0777 354.624 37.2793 354.731 37.4736L355.943 36.7404Z" fill="#A8FF00"/>
</g>
<path d="M355.338 37.1039L360.205 40.9537C360.295 41.1166 360.391 41.2723 360.497 41.4195L355.63 37.5697C355.525 37.4197 355.428 37.2643 355.338 37.1039Z" fill="#60B300"/>
<mask id="mask4_319_21" style="mask-type:luminance" maskUnits="userSpaceOnUse" x="355" y="37" width="6" height="5">
<path d="M355.338 37.1039L360.205 40.9537C360.295 41.1166 360.391 41.2723 360.497 41.4195L355.63 37.5697C355.525 37.4197 355.428 37.2643 355.338 37.1039Z" fill="white"/>
</mask>
<g mask="url(#mask4_319_21)">
<path d="M355.338 37.1039L355.761 36.5211L354.733 37.4715L355.338 37.1039ZM360.205 40.9537L360.809 40.586L360.739 40.4597L360.627 40.3709L360.205 40.9537ZM360.497 41.4195L360.074 42.0023L361.058 40.9829L360.497 41.4195ZM355.63 37.5697L355.064 38L355.125 38.0877L355.207 38.1525L355.63 37.5697ZM354.915 37.6867L359.782 41.5365L360.627 40.3709L355.761 36.5211L354.915 37.6867ZM359.6 41.3213C359.701 41.5031 359.811 41.6827 359.935 41.8561L361.058 40.9829C360.968 40.8555 360.885 40.723 360.809 40.586L359.6 41.3213ZM360.919 40.8367L356.053 36.9869L355.207 38.1525L360.074 42.0023L360.919 40.8367ZM356.196 37.1394C356.105 37.0097 356.02 36.8751 355.943 36.7362L354.733 37.4715C354.837 37.6574 354.948 37.8339 355.064 38L356.196 37.1394Z" fill="#A8FF00"/>
</g>
<path d="M355.629 37.5759L360.496 41.4257C360.597 41.5688 360.701 41.7057 360.815 41.8341L355.948 37.9843C355.835 37.8536 355.729 37.7174 355.629 37.5759Z" fill="#5DAD00"/>
<mask id="mask5_319_21" style="mask-type:luminance" maskUnits="userSpaceOnUse" x="355" y="37" width="6" height="5">
<path d="M355.629 37.5759L360.496 41.4257C360.597 41.5688 360.701 41.7057 360.815 41.8341L355.948 37.9843C355.835 37.8536 355.729 37.7174 355.629 37.5759Z" fill="white"/>
</mask>
<g mask="url(#mask5_319_21)">
<path d="M355.629 37.5759L356.052 36.9931L355.065 38.0093L355.629 37.5759ZM360.496 41.4257L361.059 40.9912L360.999 40.9066L360.918 40.8429L360.496 41.4257ZM360.815 41.8341L360.392 42.4169L361.33 41.339L360.815 41.8341ZM355.948 37.9843L355.428 38.4741L355.473 38.5263L355.526 38.5681L355.948 37.9843ZM355.206 38.1587L360.073 42.0085L360.918 40.8429L356.052 36.9931L355.206 38.1587ZM359.932 41.8592C360.043 42.0158 360.164 42.1756 360.3 42.3292L361.33 41.339C361.238 41.2346 361.15 41.1197 361.059 40.9912L359.932 41.8592ZM361.238 41.2513L356.371 37.4015L355.526 38.5681L360.392 42.4169L361.238 41.2513ZM356.469 37.4955C356.371 37.3823 356.279 37.2642 356.192 37.1414L355.065 38.0093C355.18 38.1733 355.301 38.3258 355.428 38.4741L356.469 37.4955Z" fill="#A8FF00"/>
</g>
<path d="M355.947 37.9812L360.814 41.831C360.925 41.9595 361.042 42.0806 361.164 42.1945L356.297 38.3447C356.174 38.23 356.057 38.1086 355.947 37.9812Z" fill="#5AA800"/>
<mask id="mask6_319_21" style="mask-type:luminance" maskUnits="userSpaceOnUse" x="355" y="37" width="7" height="6">
<path d="M355.947 37.9812L360.814 41.831C360.925 41.9595 361.042 42.0806 361.164 42.1945L356.297 38.3447C356.174 38.23 356.057 38.1086 355.947 37.9812Z" fill="white"/>
</mask>
<g mask="url(#mask6_319_21)">
<path d="M355.947 37.9812L356.37 37.3984L355.428 38.4721L355.947 37.9812ZM360.814 41.831L361.333 41.3401L361.289 41.29L361.237 41.2482L360.814 41.831ZM361.164 42.1945L360.741 42.7773L361.63 41.6493L361.164 42.1945ZM356.297 38.3446L355.83 38.8898L355.852 38.9097L355.874 38.9274L356.297 38.3446ZM355.525 38.564L360.391 42.4138L361.237 41.2482L356.37 37.3984L355.525 38.564ZM360.295 42.3219C360.423 42.4692 360.557 42.6081 360.697 42.7397L361.63 41.6493C361.526 41.5518 361.426 41.4486 361.333 41.3401L360.295 42.3219ZM361.586 41.6117L356.719 37.7618L355.874 38.9274L360.741 42.7773L361.586 41.6117ZM356.763 37.7994C356.659 37.7019 356.559 37.5987 356.466 37.4903L355.428 38.4721C355.556 38.6193 355.69 38.7582 355.83 38.8898L356.763 37.7994Z" fill="#A8FF00"/>
</g>
<path d="M356.295 38.3488L361.162 42.1986C361.255 42.2853 361.352 42.371 361.452 42.4493L356.585 38.5995C356.485 38.5202 356.388 38.4366 356.295 38.3488Z" fill="#58A300"/>
<mask id="mask7_319_21" style="mask-type:luminance" maskUnits="userSpaceOnUse" x="356" y="38" width="6" height="5">
<path d="M356.295 38.3488L361.162 42.1986C361.255 42.2853 361.352 42.371 361.452 42.4493L356.585 38.5995C356.485 38.5202 356.388 38.4366 356.295 38.3488Z" fill="white"/>
</mask>
<g mask="url(#mask7_319_21)">
<path d="M356.295 38.3488L356.718 37.766L355.829 38.894L356.295 38.3488ZM361.162 42.1986L361.628 41.6534L361.607 41.6325L361.584 41.6158L361.162 42.1986ZM361.452 42.4493L361.031 43.0342L361.874 41.8665L361.452 42.4493ZM356.585 38.5995L357.008 38.0167L357.006 38.0146L356.585 38.5995ZM355.872 38.9316L360.739 42.7814L361.584 41.6158L356.718 37.766L355.872 38.9316ZM360.695 42.7438C360.798 42.8399 360.911 42.9391 361.031 43.0342L361.872 41.8644C361.788 41.7973 361.707 41.7269 361.628 41.6534L360.695 42.7438ZM361.874 41.8665L357.008 38.0167L356.162 39.1823L361.029 43.0321L361.874 41.8665ZM357.006 38.0146C356.922 37.9478 356.84 37.8774 356.761 37.8036L355.829 38.894C355.932 38.9901 356.044 39.0893 356.164 39.1833L357.006 38.0146Z" fill="#A8FF00"/>
</g>
</g>
<mask id="mask8_319_21" style="mask-type:luminance" maskUnits="userSpaceOnUse" x="367" y="45" width="8" height="20">
<path d="M368.598 60.9454C370.596 54.8719 370.311 49.3531 368.151 45.6182L370.177 47.2214C374 50.2461 375.322 56.6935 372.876 64.3294L368.598 60.9454Z" fill="white" stroke="white" stroke-width="0.7"/>
</mask>
<g mask="url(#mask8_319_21)">
<path d="M365.52 43.0791L370.386 46.9289C370.579 47.0804 370.767 47.2423 370.946 47.4115L366.08 43.5616C365.9 43.3926 365.713 43.2316 365.52 43.0791Z" fill="#131419"/>
<mask id="mask9_319_21" style="mask-type:luminance" maskUnits="userSpaceOnUse" x="365" y="43" width="6" height="5">
<path d="M365.52 43.0791L370.386 46.9289C370.579 47.0804 370.767 47.2423 370.946 47.4115L366.08 43.5616C365.9 43.3926 365.713 43.2316 365.52 43.0791Z" fill="white"/>
</mask>
<g mask="url(#mask9_319_21)">
<path d="M365.52 43.0791L365.94 42.4942L365.097 43.6619L365.52 43.0791ZM370.386 46.9289L369.964 47.5117L369.965 47.5138L370.386 46.9289ZM370.946 47.4114L370.524 47.9942L371.414 46.8683L370.946 47.4114ZM366.08 43.5616L365.611 44.1047L365.633 44.1256L365.657 44.1444L366.08 43.5616ZM365.097 43.6619L369.964 47.5117L370.809 46.3461L365.942 42.4963L365.097 43.6619ZM369.965 47.5138C370.141 47.6517 370.313 47.8 370.478 47.9546L371.414 46.8683C371.219 46.6846 371.017 46.51 370.807 46.3451L369.965 47.5138ZM371.369 46.8286L366.502 42.9788L365.657 44.1444L370.524 47.9942L371.369 46.8286ZM366.548 43.0185C366.353 42.835 366.15 42.6594 365.94 42.4942L365.099 43.664C365.275 43.8018 365.446 43.9502 365.611 44.1047L366.548 43.0185Z" fill="#A8FF00"/>
</g>
<path d="M366.08 43.5585L370.947 47.4084C371.182 47.6277 371.407 47.8627 371.62 48.1081L366.753 44.2594C366.541 44.0138 366.316 43.7791 366.08 43.5585Z" fill="#14151A"/>
<mask id="mask10_319_21" style="mask-type:luminance" maskUnits="userSpaceOnUse" x="366" y="43" width="6" height="6">
<path d="M366.08 43.5585L370.947 47.4084C371.182 47.6277 371.407 47.8627 371.62 48.1081L366.753 44.2594C366.541 44.0138 366.316 43.7791 366.08 43.5585Z" fill="white"/>
</mask>
<g mask="url(#mask10_319_21)">
<path d="M366.08 43.5585L366.503 42.9757L365.613 44.1037L366.08 43.5585ZM370.947 47.4083L371.413 46.8631L371.392 46.8433L371.369 46.8255L370.947 47.4083ZM371.62 48.1081L371.197 48.692L372.139 47.6183L371.62 48.1081ZM366.753 44.2593L366.234 44.7502L366.278 44.8004L366.331 44.8421L366.753 44.2593ZM365.657 44.1413L370.524 47.9911L371.369 46.8255L366.503 42.9757L365.657 44.1413ZM370.48 47.9535C370.696 48.1551 370.904 48.3713 371.101 48.599L372.139 47.6183C371.91 47.3537 371.668 47.1009 371.413 46.8631L370.48 47.9535ZM372.043 47.5253L367.176 43.6765L366.331 44.8421L371.197 48.692L372.043 47.5264V47.5253ZM367.272 43.7684C367.044 43.5035 366.802 43.2514 366.547 43.0133L365.613 44.1037C365.83 44.3053 366.037 44.5225 366.234 44.7502L367.272 43.7684Z" fill="#A8FF00"/>
</g>
<path d="M366.752 44.2583L371.619 48.1081C371.836 48.3588 372.041 48.6251 372.236 48.9019L367.369 45.051C367.177 44.7756 366.971 44.511 366.752 44.2583Z" fill="#14161B"/>
<mask id="mask11_319_21" style="mask-type:luminance" maskUnits="userSpaceOnUse" x="366" y="44" width="7" height="5">
<path d="M366.752 44.2583L371.619 48.1081C371.836 48.3588 372.041 48.6251 372.236 48.9019L367.369 45.051C367.177 44.7756 366.971 44.511 366.752 44.2583Z" fill="white"/>
</mask>
<g mask="url(#mask11_319_21)">
<path d="M366.752 44.2583L367.175 43.6755L366.233 44.7481L366.752 44.2583ZM371.619 48.1081L372.137 47.6172L372.093 47.566L372.041 47.5253L371.619 48.1081ZM372.236 48.9019L371.813 49.4836L372.8 48.4674L372.236 48.9019ZM367.369 45.051L366.803 45.4813L366.864 45.5691L366.947 45.6338L367.369 45.051ZM366.329 44.8411L371.196 48.6909L372.041 47.5253L367.175 43.6755L366.329 44.8411ZM371.1 48.599C371.299 48.8288 371.489 49.0753 371.673 49.3343L372.8 48.4674C372.593 48.1749 372.373 47.8888 372.137 47.6172L371.1 48.599ZM372.659 48.318L367.792 44.4682L366.947 45.6338L371.813 49.4836L372.659 48.318ZM367.935 44.6207C367.728 44.3244 367.507 44.0399 367.271 43.7684L366.233 44.7481C366.435 44.9831 366.626 45.2265 366.803 45.4813L367.935 44.6207Z" fill="#A8FF00"/>
</g>
<path d="M367.369 45.0541L372.236 48.904C372.436 49.1912 372.626 49.493 372.8 49.8084L367.934 45.9586C367.758 45.6442 367.57 45.3424 367.369 45.0541Z" fill="#15161B"/>
<mask id="mask12_319_21" style="mask-type:luminance" maskUnits="userSpaceOnUse" x="367" y="45" width="6" height="5">
<path d="M367.369 45.0541L372.236 48.904C372.436 49.1912 372.626 49.493 372.8 49.8084L367.934 45.9586C367.758 45.6442 367.57 45.3424 367.369 45.0541Z" fill="white"/>
</mask>
<g mask="url(#mask12_319_21)">
<path d="M367.369 45.0541L367.792 44.4713L366.803 45.4844L367.369 45.0541ZM372.236 48.9039L372.802 48.4736L372.741 48.3859L372.658 48.3211L372.236 48.9039ZM372.8 49.8084L372.378 50.3912L373.406 49.4429L372.8 49.8084ZM367.934 45.9586L367.329 46.3273L367.4 46.4526L367.511 46.5414L367.934 45.9586ZM366.947 45.6369L371.813 49.4867L372.658 48.3211L367.792 44.4713L366.947 45.6369ZM371.67 49.3342C371.857 49.6016 372.033 49.8826 372.194 50.174L373.406 49.4429C373.221 49.109 373.02 48.7855 372.802 48.4736L371.67 49.3342ZM373.223 49.2256L368.356 45.3758L367.511 46.5414L372.378 50.3912L373.223 49.2256ZM368.538 45.5889C368.351 45.2557 368.151 44.934 367.935 44.6238L366.803 45.4844C366.99 45.7528 367.164 46.0328 367.329 46.3273L368.538 45.5889Z" fill="#A8FF00"/>
</g>
<path d="M367.934 45.9576L372.8 49.8074C372.986 50.1416 373.157 50.4915 373.313 50.8529L368.446 47.0031C368.293 46.6454 368.122 46.2964 367.934 45.9576Z" fill="#16171C"/>
<mask id="mask13_319_21" style="mask-type:luminance" maskUnits="userSpaceOnUse" x="367" y="45" width="7" height="6">
<path d="M367.934 45.9576L372.8 49.8074C372.986 50.1416 373.157 50.4915 373.313 50.8529L368.446 47.0031C368.293 46.6454 368.122 46.2964 367.934 45.9576Z" fill="white"/>
</mask>
<g mask="url(#mask13_319_21)">
<path d="M367.934 45.9576L368.356 45.3748L367.328 46.3252L367.934 45.9576ZM372.8 49.8074L373.406 49.4397L373.335 49.3134L373.223 49.2246L372.8 49.8074ZM373.313 50.8529L372.89 51.4367L373.952 50.5542L373.313 50.8529ZM368.446 47.003L367.808 47.3028L367.881 47.473L368.024 47.5858L368.446 47.003ZM367.511 46.5404L372.378 50.3902L373.223 49.2246L368.356 45.3748L367.511 46.5404ZM372.195 50.175C372.368 50.4863 372.528 50.8121 372.674 51.1526L373.952 50.5542C373.788 50.1733 373.606 49.8013 373.406 49.4397L372.195 50.175ZM373.736 50.2701L368.869 46.4202L368.024 47.5858L372.89 51.4367L373.736 50.2701ZM369.085 46.7043C368.922 46.3232 368.74 45.9512 368.539 45.5899L367.328 46.3252C367.502 46.6385 367.662 46.9634 367.808 47.3028L369.085 46.7043Z" fill="#A8FF00"/>
</g>
<path d="M368.449 47.0042L373.315 50.854C373.485 51.2509 373.637 51.6634 373.772 52.0895L368.905 48.2397C368.772 47.8115 368.619 47.4 368.449 47.0042Z" fill="#16181D"/>
<mask id="mask14_319_21" style="mask-type:luminance" maskUnits="userSpaceOnUse" x="368" y="47" width="6" height="6">
<path d="M368.449 47.0042L373.315 50.854C373.485 51.2509 373.637 51.6634 373.772 52.0895L368.905 48.2397C368.772 47.8115 368.619 47.4 368.449 47.0042Z" fill="white"/>
</mask>
<g mask="url(#mask14_319_21)">
<path d="M368.449 47.0041L368.871 46.4213L367.81 47.3028L368.449 47.0041ZM373.315 50.8539L373.954 50.5552L373.881 50.384L373.738 50.2711L373.315 50.8539ZM373.772 52.0895L373.349 52.6723L375.138 54.0875L374.437 51.8618L373.772 52.0895ZM368.905 48.2397L368.239 48.4653L368.307 48.6846L368.482 48.8225L368.905 48.2397ZM368.026 47.5869L372.893 51.4367L373.738 50.2711L368.871 46.4213L368.026 47.5869ZM372.677 51.1527C372.836 51.5245 372.979 51.9141 373.107 52.3183L374.437 51.8618C374.298 51.4176 374.137 50.9822 373.954 50.5552L372.677 51.1527ZM374.194 51.5078L369.328 47.6569L368.482 48.8225L373.349 52.6723L374.194 51.5067V51.5078ZM369.571 48.0151C369.433 47.5694 369.271 47.1318 369.087 46.7044L367.81 47.3028C367.97 47.6767 368.115 48.0642 368.239 48.4653L369.571 48.0151Z" fill="#A8FF00"/>
</g>
<path d="M369.602 49.5734C369.576 49.4448 369.549 49.3167 369.519 49.1891L373.467 52.312C373.508 52.4478 373.547 52.5846 373.585 52.7235L369.602 49.5734Z" fill="#17181E" stroke="#A8FF00" stroke-width="0.7"/>
<path d="M369.899 51.772C369.874 51.3895 369.835 51.008 369.783 50.6284L373.838 53.8348C373.909 54.2212 373.967 54.6181 374.011 55.0244L369.899 51.772Z" fill="#17191E" stroke="#A8FF00" stroke-width="0.7"/>
<path d="M368.821 60.2195C369.621 57.5635 369.982 55.0286 369.939 52.7204L374.085 56C374.201 58.303 373.889 60.8723 373.094 63.5993L368.821 60.2195Z" fill="#181A1F" stroke="#A8FF00" stroke-width="0.7"/>
<path d="M368.413 60.3584L373.28 64.2082C373.205 64.4474 373.129 64.6855 373.047 64.9268L368.18 61.077C368.26 60.8368 368.339 60.5965 368.413 60.3584Z" fill="#17191E"/>
<mask id="mask15_319_21" style="mask-type:luminance" maskUnits="userSpaceOnUse" x="368" y="60" width="6" height="5">
<path d="M368.413 60.3584L373.28 64.2082C373.205 64.4474 373.129 64.6855 373.047 64.9268L368.18 61.077C368.26 60.8368 368.339 60.5965 368.413 60.3584Z" fill="white"/>
</mask>
<g mask="url(#mask15_319_21)">
<path d="M368.413 60.3584L368.836 59.7756L368.05 59.1542L367.747 60.1328L368.413 60.3584ZM373.28 64.2082L373.946 64.4338L374.099 63.9388L373.702 63.6254L373.28 64.2082ZM373.047 64.9268L372.624 65.5096L373.386 66.1123L373.706 65.1723L373.047 64.9268ZM368.18 61.077L367.519 60.8368L367.351 61.3381L367.757 61.6598L368.18 61.077ZM367.99 60.9412L372.857 64.791L373.702 63.6254L368.836 59.7756L367.99 60.9412ZM372.614 63.9826C372.541 64.2166 372.466 64.4485 372.387 64.6824L373.706 65.1723C373.791 64.9237 373.87 64.6782 373.946 64.4338L372.614 63.9826ZM373.469 64.344L368.603 60.4942L367.757 61.6598L372.624 65.5096L373.469 64.344ZM368.841 61.3183C368.922 61.076 369.002 60.8305 369.079 60.584L367.747 60.1328C367.675 60.3647 367.599 60.5986 367.519 60.8368L368.841 61.3183Z" fill="#A8FF00"/>
</g>
</g>
<path d="M334.799 71.4776L364.751 71.2394L368.704 74.3676L338.751 74.6036L334.799 71.4776Z" fill="#0F1014" stroke="#A8FF00" stroke-width="0.7"/>
<path d="M365.284 70.7454L368.357 61.6692L372.637 65.0584L369.566 74.1336L365.284 70.7454Z" fill="#191B21" stroke="#A8FF00" stroke-width="0.7"/>
<path d="M349.083 4.07226L394.977 3.70984L368.645 81.5157L322.751 81.8781L349.083 4.07331V4.07226Z" fill="url(#paint1_linear_319_21)" stroke="#A8FF00" stroke-width="0.7" stroke-miterlimit="10"/>
<path d="M368.645 81.5168L373.513 85.3687L327.619 85.7301L322.752 81.8813L368.645 81.5168ZM394.976 3.70776L399.843 7.56072L373.511 85.3666L368.644 81.5147L394.976 3.70881V3.70776Z" fill="black" stroke="#A8FF00" stroke-width="0.7" stroke-miterlimit="10"/>
<path d="M359.332 40.4701C360.544 40.4597 361.663 40.632 362.68 40.9652C361.64 42.3543 360.268 43.3841 358.932 43.7235L359.141 42.4399L357.578 42.4525L356.984 43.6557C356.034 43.2755 355.447 42.3438 355.331 41.1062C356.681 40.6988 358.023 40.4795 359.331 40.4691L359.332 40.4701Z" fill="#A8FF00" stroke="#A8FF00" stroke-width="0.7" stroke-miterlimit="10"/>
<path d="M366.764 18.0595C371.239 18.0229 373.278 22.6801 371.323 28.459C369.368 34.2379 364.156 38.9515 359.682 38.987C355.208 39.0215 353.168 34.3653 355.124 28.5854C357.079 22.8075 362.29 18.095 366.764 18.0595ZM362.681 40.961C368.848 42.9841 371.297 50.9459 368.088 60.4274L364.772 70.2263L333.672 70.4728L336.987 60.6749C340.154 51.3167 347.856 43.3601 355.335 41.1062C355.451 42.3439 356.037 43.2755 356.988 43.6557L350.995 55.8047L352.551 60.2258L356.935 56.0041L358.934 43.7215C360.27 43.381 361.642 42.3501 362.682 40.9641L362.681 40.961Z" fill="black" stroke="#A8FF00" stroke-width="0.7" stroke-miterlimit="10"/>
<path d="M359.142 42.4389L358.935 43.7215L356.936 56.0041L352.552 60.2258L350.996 55.8047L356.989 43.6557L357.582 42.4514L359.142 42.4389Z" fill="#A8FF00" stroke="#A8FF00" stroke-width="0.7" stroke-miterlimit="10"/>
<path d="M100.868 160.694C103.221 160.694 105.129 158.702 105.129 156.244C105.129 153.786 103.221 151.793 100.868 151.793C98.5146 151.793 96.6069 153.786 96.6069 156.244C96.6069 158.702 98.5146 160.694 100.868 160.694Z" fill="#FFC400"/>
<path d="M194.6 141.1C196.677 141.1 198.361 139.342 198.361 137.172C198.361 135.003 196.677 133.244 194.6 133.244C192.523 133.244 190.839 135.003 190.839 137.172C190.839 139.342 192.523 141.1 194.6 141.1Z" fill="white" stroke="white"/>
<path d="M356.5 136.3C360.918 136.3 364.5 132.559 364.5 127.944C364.5 123.33 360.918 119.589 356.5 119.589C352.082 119.589 348.5 123.33 348.5 127.944C348.5 132.559 352.082 136.3 356.5 136.3Z" fill="black" stroke="white"/>
<path d="M356.5 131.078C358.157 131.078 359.5 129.675 359.5 127.944C359.5 126.214 358.157 124.811 356.5 124.811C354.843 124.811 353.5 126.214 353.5 127.944C353.5 129.675 354.843 131.078 356.5 131.078Z" fill="white"/>
<path d="M356.5 131.078C358.157 131.078 359.5 129.675 359.5 127.944C359.5 126.214 358.157 124.811 356.5 124.811C354.843 124.811 353.5 126.214 353.5 127.944C353.5 129.675 354.843 131.078 356.5 131.078Z" fill="white"/>
<path d="M356.5 131.078C358.157 131.078 359.5 129.675 359.5 127.944C359.5 126.214 358.157 124.811 356.5 124.811C354.843 124.811 353.5 126.214 353.5 127.944C353.5 129.675 354.843 131.078 356.5 131.078Z" stroke="white"/>
<path d="M466 12.5333C468.761 12.5333 471 10.1952 471 7.31109C471 4.42694 468.761 2.08887 466 2.08887C463.239 2.08887 461 4.42694 461 7.31109C461 10.1952 463.239 12.5333 466 12.5333Z" fill="#FFC400"/>
<path d="M186.572 102.3C191.673 99.1961 191.951 99.0708 192.148 98.8922L186.735 102.179C186.683 102.222 186.628 102.263 186.572 102.3Z" fill="black" stroke="white" stroke-width="0.5"/>
<path d="M186.724 102.182L192.137 98.8942L199.439 91.9779L194.026 95.2616L186.724 102.182Z" fill="black" stroke="#FFC400" stroke-width="0.5"/>
<path d="M168.749 33.9706L163.336 37.2585C164.754 36.3999 166.715 36.52 168.886 37.8266L201.708 57.6189C206.012 60.2133 209.496 66.5081 209.479 71.6792L209.419 95.1635C209.415 97.7255 208.542 99.5356 207.142 100.386L212.554 97.0999C213.954 96.2508 214.827 94.4418 214.832 91.8798L214.892 68.3965C214.905 63.2265 211.424 56.9285 207.121 54.3341L174.3 34.5387C172.133 33.2332 170.167 33.112 168.749 33.9706Z" fill="#02050F" stroke="#FFC400" stroke-width="0.5"/>
<path d="M168.89 37.8266C164.581 35.228 161.082 37.3127 161.065 42.4838L161.001 65.9671C160.988 71.1339 164.466 77.4278 168.774 80.0263L176.337 84.5895L183.567 100.267C183.969 101.13 184.56 101.798 185.151 102.151C185.742 102.509 186.334 102.553 186.736 102.178L194.038 95.2616L201.597 99.8206C205.902 102.415 209.405 100.33 209.422 95.1635L209.486 71.6791C209.499 66.5091 206.017 60.2153 201.713 57.6209L168.89 37.8266Z" fill="url(#paint2_linear_319_21)" stroke="#FFC400" stroke-width="0.5"/>
<path d="M196.534 79.3704L193.436 70.2754L195.909 71.7669L197.643 77.3338L199.364 73.8505L201.812 75.3263L198.714 80.6854V84.2532L196.534 82.9372V79.3704ZM188.362 72.0457L189.548 72.7601C190.415 73.2824 190.784 72.9826 190.784 72.1523C190.784 71.3219 190.415 70.5762 189.548 70.0529L188.362 69.3385V72.0447V72.0457ZM193.003 73.4902C193.003 75.2741 191.996 76.3269 189.713 74.9514L188.362 74.1367V78.0116L186.182 76.6956V65.9034L189.713 68.033C191.906 69.3553 193.003 71.5068 193.003 73.4902ZM184.971 70.5355C184.971 73.7806 182.931 74.8417 180.394 73.3116C177.856 71.7815 175.791 68.245 175.791 65.001C175.791 61.7559 177.856 60.726 180.394 62.2562C182.944 63.7936 184.971 67.2914 184.971 70.5355ZM178.022 66.3462C178.022 68.2366 178.94 70.0362 180.394 70.9125C181.822 71.7742 182.752 71.0901 182.752 69.1986C182.752 67.2768 181.822 65.5002 180.394 64.6385C178.94 63.7623 178.022 64.4234 178.022 66.3462ZM166.08 59.1594C166.08 55.93 167.942 54.7769 170.581 56.3676C172.71 57.6523 174.316 60.066 174.826 62.7105L172.429 61.265C172.06 60.1203 171.384 59.2513 170.555 58.751C169.217 57.9447 168.299 58.5902 168.299 60.4963C168.299 62.4034 169.217 64.156 170.555 64.9634C171.384 65.4637 172.06 65.4093 172.429 64.7096L174.826 66.1551C174.316 68.1855 172.71 68.6461 170.581 67.3625C167.942 65.7707 166.08 62.3878 166.08 59.1594Z" fill="#FFC400"/>
</g>
</g>
<defs>
<linearGradient id="paint0_linear_319_21" x1="358.034" y1="-389.821" x2="357.961" y2="160.981" gradientUnits="userSpaceOnUse">
<stop stop-color="#FF8800"/>
<stop offset="1"/>
</linearGradient>
<linearGradient id="paint1_linear_319_21" x1="371.48" y1="25.8333" x2="187.455" y2="111.94" gradientUnits="userSpaceOnUse">
<stop/>
<stop offset="1" stop-color="#A8FF00"/>
</linearGradient>
<linearGradient id="paint2_linear_319_21" x1="183.5" y1="80.4243" x2="75.5447" y2="-112.408" gradientUnits="userSpaceOnUse">
<stop/>
<stop offset="1" stop-color="#FF8800"/>
</linearGradient>
<clipPath id="clip0_319_21">
<rect width="486" height="188" fill="white"/>
</clipPath>
</defs>
</svg>
