<svg width="19" height="18" viewBox="0 0 19 18" fill="none" xmlns="http://www.w3.org/2000/svg">
<mask id="mask0_43_242" style="mask-type:luminance" maskUnits="userSpaceOnUse" x="0" y="0" width="19" height="18">
<path d="M0.020752 0H18.0208V18H0.020752V0Z" fill="white"/>
</mask>
<g mask="url(#mask0_43_242)">
<path d="M16.3648 14.027C16.1021 14.6384 15.7777 15.2214 15.3968 15.767C14.8878 16.493 14.4718 16.995 14.1508 17.274C13.6528 17.732 13.1188 17.966 12.5478 17.98C12.1378 17.98 11.6438 17.863 11.0678 17.626C10.4908 17.391 9.95975 17.274 9.47475 17.274C8.96575 17.274 8.42075 17.391 7.83675 17.626C7.25175 17.863 6.78075 17.986 6.42075 17.998C5.87275 18.022 5.32775 17.781 4.78275 17.274C4.43475 16.971 3.99975 16.451 3.47875 15.714C2.91875 14.927 2.45975 14.015 2.09975 12.975C1.71375 11.852 1.52075 10.765 1.52075 9.711C1.52075 8.505 1.78075 7.464 2.30375 6.593C2.71375 5.893 3.25975 5.34 3.94375 4.934C4.61404 4.53311 5.37877 4.31743 6.15975 4.309C6.59375 4.309 7.16475 4.443 7.87375 4.708C8.58075 4.973 9.03375 5.108 9.23375 5.108C9.38175 5.108 9.88675 4.95 10.7408 4.637C11.5498 4.346 12.2308 4.225 12.7908 4.273C14.3048 4.395 15.4428 4.993 16.1988 6.068C14.8448 6.888 14.1748 8.038 14.1888 9.512C14.2008 10.661 14.6168 11.616 15.4358 12.375C15.7979 12.7216 16.2206 12.9989 16.6828 13.193C16.5828 13.483 16.4768 13.76 16.3648 14.027ZM12.8918 0.36C12.8918 1.26 12.5618 2.1 11.9068 2.879C11.1168 3.804 10.1588 4.339 9.12175 4.254C9.10782 4.14087 9.1008 4.02699 9.10075 3.913C9.10075 3.048 9.47675 2.123 10.1448 1.367C10.5009 0.967124 10.9334 0.642436 11.4168 0.412C11.9308 0.162 12.4168 0.024 12.8728 0C12.8858 0.12 12.8918 0.24 12.8918 0.36Z" fill="black"/>
</g>
</svg>
