<svg width="19" height="18" viewBox="0 0 19 18" fill="none" xmlns="http://www.w3.org/2000/svg">
<g clip-path="url(#clip0_43_226)">
<mask id="mask0_43_226" style="mask-type:luminance" maskUnits="userSpaceOnUse" x="0" y="0" width="19" height="18">
<path d="M0.84375 0H18.8438V18H0.84375V0Z" fill="white"/>
</mask>
<g mask="url(#mask0_43_226)">
<path d="M18.6677 9.20705C18.6677 8.59505 18.6177 7.98005 18.5127 7.37805H10.0227V10.8441H14.8847C14.7851 11.3978 14.5743 11.9256 14.2651 12.3957C13.9559 12.8657 13.5547 13.2683 13.0857 13.5791V15.8281H15.9857C17.6887 14.2601 18.6677 11.9451 18.6677 9.20805V9.20705Z" fill="#4285F4"/>
<path d="M10.0237 18C12.4517 18 14.4987 17.203 15.9897 15.828L13.0897 13.579C12.2827 14.128 11.2407 14.439 10.0277 14.439C7.67969 14.439 5.68769 12.855 4.97469 10.725H1.98169V13.043C2.73116 14.5333 3.88004 15.786 5.30011 16.6613C6.72017 17.5366 8.35553 18.0001 10.0237 18Z" fill="#34A853"/>
<path d="M4.9707 10.7251C4.59362 9.60734 4.59362 8.39678 4.9707 7.27906V4.96106H1.9807C1.35123 6.21512 1.02344 7.59889 1.02344 9.00206C1.02344 10.4052 1.35123 11.789 1.9807 13.0431L4.9707 10.7251Z" fill="#FBBC04"/>
<path d="M10.0237 3.562C11.3073 3.5413 12.5475 4.0262 13.4767 4.912L16.0467 2.342C14.4168 0.812899 12.2584 -0.0260351 10.0237 0.00099989C8.35515 0.000824596 6.71942 0.464594 5.29927 1.34049C3.87911 2.21639 2.73047 3.46991 1.98169 4.961L4.97169 7.279C5.68169 5.146 7.67569 3.562 10.0237 3.562Z" fill="#EA4335"/>
</g>
</g>
<defs>
<clipPath id="clip0_43_226">
<rect width="18" height="18" fill="white" transform="translate(0.84375)"/>
</clipPath>
</defs>
</svg>
